<svg width="1777" height="80" viewBox="0 0 1777 80" fill="none" xmlns="http://www.w3.org/2000/svg">
<rect x="0.25" y="0.25" width="1776.5" height="39.5" fill="#D9D9D9" stroke="#5D5D5D" stroke-width="0.5"/>
<rect x="0.25" y="40.25" width="1776.5" height="39.5" fill="#D9D9D9" stroke="#5D5D5D" stroke-width="0.5"/>
<path d="M39.75 0.25V39.75H0.25V0.25H39.75Z" fill="#9CF667" stroke="#5D5D5D" stroke-width="0.5"/>
<rect x="40.25" y="40.25" width="39.5" height="39.5" fill="#9CF667" stroke="#5D5D5D" stroke-width="0.5"/>
<rect x="80.25" y="0.25" width="39.5" height="39.5" fill="#9CF667" stroke="#5D5D5D" stroke-width="0.5"/>
<rect x="120.25" y="40.25" width="39.5" height="39.5" fill="#9CF667" stroke="#5D5D5D" stroke-width="0.5"/>
<rect x="159.25" y="0.25" width="39.5" height="39.5" fill="#9CF667" stroke="#5D5D5D" stroke-width="0.5"/>
<rect x="198.25" y="40.25" width="39.5" height="39.5" fill="#9CF667" stroke="#5D5D5D" stroke-width="0.5"/>
<rect x="395.25" y="0.25" width="39.5" height="39.5" fill="#9CF667" stroke="#5D5D5D" stroke-width="0.5"/>
<rect x="355.25" y="40.25" width="39.5" height="39.5" fill="#9CF667" stroke="#5D5D5D" stroke-width="0.5"/>
<rect x="315.25" y="0.25" width="39.5" height="39.5" fill="#9CF667" stroke="#5D5D5D" stroke-width="0.5"/>
<rect x="276.25" y="40.25" width="39.5" height="39.5" fill="#9CF667" stroke="#5D5D5D" stroke-width="0.5"/>
<rect x="237.25" y="0.25" width="39.5" height="39.5" fill="#9CF667" stroke="#5D5D5D" stroke-width="0.5"/>
<path d="M909.75 0.25V39.75H870.25V0.25H909.75Z" fill="#9CF667" stroke="#5D5D5D" stroke-width="0.5"/>
<rect x="910.25" y="40.25" width="39.5" height="39.5" fill="#9CF667" stroke="#5D5D5D" stroke-width="0.5"/>
<rect x="950.25" y="0.25" width="39.5" height="39.5" fill="#9CF667" stroke="#5D5D5D" stroke-width="0.5"/>
<rect x="990.25" y="40.25" width="39.5" height="39.5" fill="#9CF667" stroke="#5D5D5D" stroke-width="0.5"/>
<rect x="1029.25" y="0.25" width="39.5" height="39.5" fill="#9CF667" stroke="#5D5D5D" stroke-width="0.5"/>
<rect x="1068.25" y="40.25" width="39.5" height="39.5" fill="#9CF667" stroke="#5D5D5D" stroke-width="0.5"/>
<rect x="1265.25" y="0.25" width="39.5" height="39.5" fill="#9CF667" stroke="#5D5D5D" stroke-width="0.5"/>
<rect x="1385.25" y="40.25" width="39.5" height="39.5" fill="#9CF667" stroke="#5D5D5D" stroke-width="0.5"/>
<rect x="1345.25" y="0.25" width="39.5" height="39.5" fill="#9CF667" stroke="#5D5D5D" stroke-width="0.5"/>
<rect x="1305.25" y="40.25" width="39.5" height="39.5" fill="#9CF667" stroke="#5D5D5D" stroke-width="0.5"/>
<rect x="1225.25" y="40.25" width="39.5" height="39.5" fill="#9CF667" stroke="#5D5D5D" stroke-width="0.5"/>
<rect x="1185.25" y="0.25" width="39.5" height="39.5" fill="#9CF667" stroke="#5D5D5D" stroke-width="0.5"/>
<rect x="1146.25" y="40.25" width="39.5" height="39.5" fill="#9CF667" stroke="#5D5D5D" stroke-width="0.5"/>
<rect x="1107.25" y="0.25" width="39.5" height="39.5" fill="#9CF667" stroke="#5D5D5D" stroke-width="0.5"/>
<rect x="0.25" y="-0.25" width="39.5" height="39.5" transform="matrix(1 0 0 -1 1425 39.5)" fill="#9CF667" stroke="#5D5D5D" stroke-width="0.5"/>
<rect x="0.25" y="-0.25" width="39.5" height="39.5" transform="matrix(1 0 0 -1 1622 79.5)" fill="#9CF667" stroke="#5D5D5D" stroke-width="0.5"/>
<rect x="0.25" y="-0.25" width="34.5" height="39.5" transform="matrix(1 0 0 -1 1742 39.5)" fill="#9CF667" stroke="#5D5D5D" stroke-width="0.5"/>
<rect x="0.25" y="-0.25" width="39.5" height="39.5" transform="matrix(1 0 0 -1 1702 79.5)" fill="#9CF667" stroke="#5D5D5D" stroke-width="0.5"/>
<rect x="0.25" y="-0.25" width="39.5" height="39.5" transform="matrix(1 0 0 -1 1662 39.5)" fill="#9CF667" stroke="#5D5D5D" stroke-width="0.5"/>
<rect x="0.25" y="-0.25" width="39.5" height="39.5" transform="matrix(1 0 0 -1 1582 39.5)" fill="#9CF667" stroke="#5D5D5D" stroke-width="0.5"/>
<rect x="0.25" y="-0.25" width="39.5" height="39.5" transform="matrix(1 0 0 -1 1542 79.5)" fill="#9CF667" stroke="#5D5D5D" stroke-width="0.5"/>
<rect x="0.25" y="-0.25" width="39.5" height="39.5" transform="matrix(1 0 0 -1 1503 39.5)" fill="#9CF667" stroke="#5D5D5D" stroke-width="0.5"/>
<rect x="0.25" y="-0.25" width="39.5" height="39.5" transform="matrix(1 0 0 -1 1464 79.5)" fill="#9CF667" stroke="#5D5D5D" stroke-width="0.5"/>
<path d="M474.75 79.75V40.25H435.25V79.75H474.75Z" fill="#9CF667" stroke="#5D5D5D" stroke-width="0.5"/>
<rect x="0.25" y="-0.25" width="39.5" height="39.5" transform="matrix(1 0 0 -1 475 39.5)" fill="#9CF667" stroke="#5D5D5D" stroke-width="0.5"/>
<rect x="0.25" y="-0.25" width="39.5" height="39.5" transform="matrix(1 0 0 -1 515 79.5)" fill="#9CF667" stroke="#5D5D5D" stroke-width="0.5"/>
<rect x="0.25" y="-0.25" width="39.5" height="39.5" transform="matrix(1 0 0 -1 555 39.5)" fill="#9CF667" stroke="#5D5D5D" stroke-width="0.5"/>
<rect x="0.25" y="-0.25" width="39.5" height="39.5" transform="matrix(1 0 0 -1 594 79.5)" fill="#9CF667" stroke="#5D5D5D" stroke-width="0.5"/>
<rect x="0.25" y="-0.25" width="39.5" height="39.5" transform="matrix(1 0 0 -1 633 39.5)" fill="#9CF667" stroke="#5D5D5D" stroke-width="0.5"/>
<rect x="0.25" y="-0.25" width="39.5" height="39.5" transform="matrix(1 0 0 -1 830 79.5)" fill="#9CF667" stroke="#5D5D5D" stroke-width="0.5"/>
<rect x="0.25" y="-0.25" width="39.5" height="39.5" transform="matrix(1 0 0 -1 790 39.5)" fill="#9CF667" stroke="#5D5D5D" stroke-width="0.5"/>
<rect x="0.25" y="-0.25" width="39.5" height="39.5" transform="matrix(1 0 0 -1 750 79.5)" fill="#9CF667" stroke="#5D5D5D" stroke-width="0.5"/>
<rect x="0.25" y="-0.25" width="39.5" height="39.5" transform="matrix(1 0 0 -1 711 39.5)" fill="#9CF667" stroke="#5D5D5D" stroke-width="0.5"/>
<rect x="0.25" y="-0.25" width="39.5" height="39.5" transform="matrix(1 0 0 -1 672 79.5)" fill="#9CF667" stroke="#5D5D5D" stroke-width="0.5"/>
</svg>
