<svg width="64" height="64" viewBox="0 0 64 64" fill="none" xmlns="http://www.w3.org/2000/svg">
<g clip-path="url(#clip0_121_1058)">
<path d="M47.8237 30.411C48.3142 31.1467 48.8047 31.8825 49.05 33.1088H41.202C41.202 32.8635 41.202 32.373 41.4472 31.8825C41.6925 31.392 41.6925 31.1468 42.183 30.6563C42.4282 30.1658 42.9188 29.9205 43.4092 29.6753C43.8997 29.43 44.6355 29.1847 45.3712 29.1847C46.3522 29.43 47.3332 29.6753 47.8237 30.411ZM25.2607 28.6943C25.7512 28.2038 26.2417 27.468 26.2417 26.487C26.2417 25.9965 26.2417 25.506 25.9965 25.0155C25.7512 24.7703 25.506 24.2798 25.2607 24.2798C25.0155 24.0345 24.525 24.0345 24.0345 23.7893H17.658V29.43H23.0535C23.7892 29.43 24.525 29.1848 25.2607 28.6943ZM23.2987 32.8635H17.658V39.4853H23.2987C23.7892 39.4853 24.2797 39.4853 24.7703 39.24C25.2607 39.24 25.7512 38.9948 25.9965 38.7495C26.2417 38.5043 26.7322 38.259 26.9775 37.7685C27.2227 37.278 27.2227 36.7875 27.2227 36.297C27.2227 35.0708 26.9775 34.0898 26.2417 33.5993C25.506 33.1087 24.525 32.8635 23.2987 32.8635ZM63.765 12.0173V51.7478C63.765 58.3695 58.3695 63.765 51.7477 63.765H12.0172C5.3955 63.765 0 58.3695 0 51.7478V12.0173C0 5.3955 5.3955 0 12.0172 0H51.7477C58.3695 0 63.765 5.3955 63.765 12.0173ZM40.221 23.544H50.031V21.0915H40.221V23.544ZM32.373 36.7875C32.373 35.316 32.1278 34.0898 31.392 32.8635C30.6562 31.8825 29.6752 31.1468 28.2037 30.6563C29.1847 30.1658 30.1657 29.43 30.6562 28.6943C31.1467 27.9585 31.392 26.9775 31.392 25.7513C31.392 23.9119 31.1467 23.7893 30.9015 22.8083C30.411 22.0725 29.9205 21.3368 29.43 21.0915C28.6942 20.601 27.9585 20.3558 26.9775 20.1105C25.7512 19.62 24.7703 19.62 23.544 19.62H12.2625V43.6545H24.0345C25.0155 43.6545 26.2417 43.4093 27.2227 43.164C28.2037 42.9188 29.1847 42.4283 29.9205 41.9378C30.6562 41.4473 31.392 40.7115 31.8825 39.7305C32.1277 38.9948 32.373 38.0138 32.373 36.7875ZM41.202 36.0518H53.7097C53.7097 34.5802 53.7097 33.354 53.4645 32.1278C53.2192 30.9015 52.7287 29.6753 51.993 28.9395C51.2572 27.9585 50.2762 27.2227 49.2952 26.7323C48.069 26.2418 46.8427 25.7513 45.3712 25.7513C44.145 25.7513 42.9187 25.9965 41.6925 26.487C40.7115 26.9775 39.7305 27.7133 38.7495 28.449C38.0137 29.1848 37.278 30.1658 37.0327 31.392C36.5422 32.6183 36.297 33.8445 36.297 35.0708C36.297 36.9101 36.5422 37.7685 37.0327 38.7495C37.5233 39.9758 38.0137 40.9568 38.7495 41.6925C39.4852 42.4283 40.4662 43.164 41.4472 43.6545C42.6735 44.145 43.8997 44.3903 45.126 44.3903C47.088 44.3903 48.8047 43.8998 50.2762 42.9188C51.7477 41.9378 52.7287 40.4663 53.4645 38.5042H49.2952C49.05 38.9948 48.8047 39.4852 48.069 39.9757C47.3332 40.4663 46.5975 40.7115 45.6165 40.7115C44.3902 40.7115 43.164 40.4663 42.4282 39.7305C41.6925 38.7495 41.202 37.5233 41.202 36.0518Z" fill="black"/>
</g>
<defs>
<clipPath id="clip0_121_1058">
<rect width="63.765" height="63.765" fill="white"/>
</clipPath>
</defs>
</svg>
