<svg width="93" height="93" viewBox="0 0 93 93" fill="none" xmlns="http://www.w3.org/2000/svg">
<g clip-path="url(#clip0_114_293)">
<path d="M43.1506 0.11029C42.7989 0.147345 41.7011 0.277399 40.7326 0.39147C36.828 0.836852 32.4003 2.00952 28.5147 3.64647C14.4521 9.52218 3.86824 22.4136 0.948187 37.1999C0.260859 40.7164 0.09375 42.4442 0.09375 46.4999C0.09375 51.7275 0.613242 55.3349 1.99008 59.8933C6.49113 74.8096 18.2091 86.5088 33.164 91.0272C37.665 92.3866 41.292 92.9061 46.5 92.9061C51.7276 92.9061 55.335 92.3866 59.8935 91.0098C74.8098 86.5087 86.5089 74.7907 91.0274 59.8359C92.3868 55.3349 92.9063 51.7079 92.9063 46.4999C92.9063 44.286 92.7959 41.7576 92.6651 40.8261C91.1582 30.0759 86.7305 21.036 79.3486 13.6512C71.9806 6.32312 62.9785 1.87874 52.4506 0.371852C51.0004 0.166962 44.2855 -0.0204914 43.1506 0.11029ZM27.9923 29.4053C28.9804 29.7032 29.4425 29.9822 30.1124 30.6513C31.4151 31.9737 31.713 32.6981 31.713 34.6874C31.713 36.1776 31.6564 36.4559 31.211 37.2362C30.3536 38.6864 28.3643 40.0262 26.9882 40.0625C26.0197 40.0829 26.0596 39.6542 27.119 38.5389C28.5321 37.0691 28.7363 36.5118 28.7363 34.3154C28.7189 32.196 28.458 31.4716 27.4728 30.8759C26.6532 30.3738 25.7617 30.4109 24.459 31.0233C21.0732 32.6436 17.4092 38.0369 15.9786 43.5624C14.0801 50.9275 17.4462 56.8221 22.9892 55.8173C24.6065 55.5194 27.6574 53.9587 28.9804 52.7294C30.0761 51.7275 30.0761 51.7079 30.1865 50.4625C30.4306 47.8563 32.2696 45.2538 34.7275 44.0448C35.8595 43.4853 36.1407 43.4316 37.665 43.4316C39.1152 43.4316 39.4502 43.5057 40.1571 43.8944C42.4073 45.1804 41.9423 48.1739 39.5069 48.1739C38.0937 48.1739 37.3671 47.4473 38.3916 47.0593C39.3964 46.6873 39.0215 45.2909 37.8525 44.9755C36.4756 44.621 34.9121 45.5517 33.9269 47.3369C32.7353 49.4947 32.6808 52.0624 33.8135 53.2322C34.9121 54.4041 36.2882 53.4763 37.3497 50.8135C37.9062 49.457 38.7062 48.7304 39.6376 48.7304C40.455 48.7304 40.6054 49.2332 40.2501 50.7597C39.7285 53.121 40.083 53.7342 41.5529 53.0106C42.0353 52.7861 42.836 52.2673 43.3184 51.8953L44.2295 51.1687L44.8456 47.9501C45.5155 44.3427 45.7735 43.8573 47.1503 43.5994C48.4726 43.3553 48.7705 44.0077 48.2852 46.0712L48.0236 47.2264L48.9921 46.2383C51.2794 43.8944 54.089 42.7421 55.0568 43.7099C55.5762 44.2293 55.5196 44.8818 54.7763 47.1865C54.4239 48.285 53.9386 50.0164 53.7177 51.0009C53.3828 52.4882 53.3624 52.8427 53.5506 53.0847C54.1464 53.7909 55.9679 53.0643 57.5859 51.4833L58.5341 50.5555L58.6474 48.4892C58.7579 46.1082 58.9795 45.2538 59.6123 44.4902C60.2081 43.784 61.287 43.2645 61.8632 43.412C62.4394 43.5624 62.4394 44.1189 61.9199 45.7566C61.1933 48.0067 61.2696 53.1951 62.0136 53.1951C62.3115 53.1951 63.8351 51.5967 64.8036 50.2576L65.5272 49.2695L64.9511 48.6766C63.9462 47.6159 63.705 46.9285 63.705 45.1971C63.705 43.9344 63.7987 43.4686 64.1133 42.8525C64.6357 41.8876 65.4531 41.1814 66.4209 40.9002C67.4425 40.5849 68.7081 41.1044 69.2276 42.0351C69.75 42.9833 69.62 45.1034 68.9494 46.5565L68.4669 47.6151H69.1172C70.0109 47.6151 70.3632 47.3935 71.9639 45.8866C72.8009 45.0867 73.7686 44.3972 74.4923 44.0622C77.339 42.7254 80.6884 43.412 81.2442 45.458C81.7092 47.0956 80.6884 48.248 78.9004 48.1172C77.6172 48.0242 77.376 47.6885 78.12 47.0593C79.4591 45.9404 78.12 44.5105 76.2041 45.03C75.1622 45.3105 73.9902 46.4802 73.3777 47.8396C72.1484 50.5555 72.8009 53.7539 74.5664 53.7539C75.2734 53.7539 76.5216 52.3581 77.004 51.0009C77.5802 49.4373 78.7892 48.4529 79.7003 48.8067C80.2031 48.992 80.2401 49.494 79.9248 51.075C79.5702 52.8064 79.5157 54.4245 79.794 55.1677C79.9052 55.4453 80.2401 55.9677 80.5576 56.3201C81.1505 56.9892 81.1709 57.2312 80.6681 57.5487C80.4269 57.7158 80.1086 57.6424 79.329 57.2145C78.2501 56.655 77.3194 55.6502 76.9844 54.702L76.7802 54.1455L76.0362 54.702C75.6076 54.9999 74.9384 55.3349 74.549 55.4453C73.005 55.8543 71.1065 54.7957 70.2158 53.0106C69.8605 52.3203 69.75 50.2947 70.0109 49.5136C70.1591 49.085 70.1591 49.085 69.5626 49.3829C69.248 49.5507 68.5781 49.7352 68.0586 49.7919C67.2012 49.8864 67.0705 49.9794 66.2168 51.0576C65.0078 52.5616 62.8673 54.5916 61.9932 55.0203C60.1347 55.9481 59.5215 55.6872 59.0361 53.7706L58.7012 52.4882L57.9005 53.1951C56.879 54.0888 54.833 55.1677 53.6603 55.4286C52.545 55.6698 51.3535 55.3152 50.8703 54.5712C50.1474 53.456 50.3886 51.0946 51.5402 47.913C52.3946 45.5517 51.7821 45.5154 49.625 47.7655C48.0244 49.457 47.337 50.666 46.8916 52.5449C46.4266 54.4979 45.8672 55.2041 44.6044 55.502C43.8408 55.6698 43.4855 55.2041 43.6366 54.1825L43.7471 53.3622L43.0401 53.8476C42.0353 54.5349 40.7696 55.1677 39.8956 55.409C39.0215 55.6502 37.8692 55.3915 37.5909 54.9062C37.0889 54.0525 37.0889 54.0525 36.3085 54.665C34.6142 56.0418 32.1962 55.6502 30.9697 53.828L30.5774 53.2518L29.3517 54.3867C25.8155 57.6228 21.3908 59.073 18.1161 58.0682C13.9493 56.8054 11.6446 53.2322 11.6817 48.0809C11.6991 42.9099 13.9864 37.4607 17.8379 33.4246C20.0146 31.1541 22.0606 29.8143 24.1444 29.3123C25.6484 28.9403 26.5624 28.9592 27.9923 29.4053Z" fill="#00C4CC"/>
<path d="M65.6944 42.6318C65.2854 43.0401 65.4358 44.6778 65.956 45.7197C66.2168 46.2588 66.4951 46.6875 66.5881 46.6875C66.6622 46.6875 66.8293 46.2588 66.9601 45.7364C67.4251 43.8037 66.5881 41.7374 65.6944 42.6318Z" fill="#00C4CC"/>
</g>
<defs>
<clipPath id="clip0_114_293">
<rect width="93" height="93" fill="white"/>
</clipPath>
</defs>
</svg>
