<svg width="91" height="91" viewBox="0 0 91 91" fill="none" xmlns="http://www.w3.org/2000/svg">
<path d="M13.3756 81.1346L6.22781 0.961426H84.7722L77.6173 81.1225L45.4524 90.0398L13.3756 81.1346Z" fill="#1572B6"/>
<path d="M45.5007 83.2238L71.4919 76.0178L77.6066 7.51611H45.5007V83.2238Z" fill="#33A9DC"/>
<path d="M45.5007 36.5626H58.5123L59.4109 26.4936H45.5007V16.6606H70.1574L69.9214 19.2989L67.5042 46.3956H45.5007V36.5626Z" fill="white"/>
<path d="M45.559 62.0998L45.5157 62.1126L34.5651 59.1558L33.8648 51.3135H23.9956L25.3727 66.7529L45.5142 72.343L45.559 72.3302V62.0998Z" fill="#EBEBEB"/>
<path d="M57.6762 45.98L56.4918 59.148L45.5249 62.1083V72.3387L65.6828 66.7521L65.8307 65.0907L67.5412 45.98H57.6762Z" fill="white"/>
<path d="M45.5341 16.6606V26.4936H21.7831L21.5862 24.284L21.1383 19.2989L20.903 16.6606H45.5341ZM45.5007 36.5641V46.397H34.6881L34.4911 44.1874L34.0425 39.2023L33.8079 36.5641H45.5007Z" fill="#EBEBEB"/>
</svg>
