<svg width="130" height="130" viewBox="0 0 130 130" fill="none" xmlns="http://www.w3.org/2000/svg">
<path d="M48.75 16.25H65V48.75H48.75C44.4402 48.75 40.307 47.038 37.2595 43.9905C34.212 40.943 32.5 36.8098 32.5 32.5C32.5 28.1902 34.212 24.057 37.2595 21.0095C40.307 17.962 44.4402 16.25 48.75 16.25Z" fill="#F4511E"/>
<path d="M81.25 48.75H65V16.25H81.25C85.5598 16.25 89.693 17.962 92.7405 21.0095C95.7879 24.057 97.5 28.1902 97.5 32.5C97.5 36.8098 95.7879 40.943 92.7405 43.9905C89.693 47.038 85.5598 48.75 81.25 48.75Z" fill="#FF8A65"/>
<path d="M65 65C65 73.9746 72.2754 81.25 81.25 81.25C90.2246 81.25 97.5 73.9746 97.5 65C97.5 56.0254 90.2246 48.75 81.25 48.75C72.2754 48.75 65 56.0254 65 65Z" fill="#29B6F6"/>
<path d="M48.75 48.75H65V81.25H48.75C44.4402 81.25 40.307 79.5379 37.2595 76.4905C34.212 73.443 32.5 69.3098 32.5 65C32.5 60.6902 34.212 56.557 37.2595 53.5095C40.307 50.462 44.4402 48.75 48.75 48.75Z" fill="#7C4DFF"/>
<path d="M48.75 81.25H65V97.5C65 101.81 63.288 105.943 60.2405 108.99C57.193 112.038 53.0598 113.75 48.75 113.75C44.4402 113.75 40.307 112.038 37.2595 108.99C34.212 105.943 32.5 101.81 32.5 97.5C32.5 93.1902 34.212 89.057 37.2595 86.0095C40.307 82.9621 44.4402 81.25 48.75 81.25Z" fill="#00E676"/>
</svg>
