<svg width="72" height="90" viewBox="0 0 72 90" fill="none" xmlns="http://www.w3.org/2000/svg">
<g clip-path="url(#clip0_114_276)">
<path d="M22.5506 87.2873C26.3348 88.8005 30.4397 89.6988 34.7501 89.8483C40.3799 90.048 45.9778 88.9267 51.0902 86.5754C45.1432 84.2535 39.7575 80.8581 35.1608 76.6362C32.1812 81.3774 27.774 85.122 22.5506 87.2873Z" fill="#FF9100"/>
<path d="M35.1599 76.6378C24.6673 66.9938 18.3021 53.0354 18.8401 37.7259C18.8575 37.2284 18.884 36.7317 18.9149 36.2351C14.255 35.0344 9.35778 35.0853 4.72416 36.3826C1.9232 41.2586 0.232883 46.8531 0.0222263 52.8454C-0.521149 68.3114 8.89651 81.8245 22.5501 87.2888C27.7734 85.1235 32.1801 81.3829 35.1599 76.6378Z" fill="#FFC400"/>
<path d="M35.1605 76.6371C37.6 72.7576 39.0791 68.209 39.2513 63.3084C39.7041 50.4178 30.9842 39.3288 18.9152 36.2344C18.8843 36.7311 18.8581 37.228 18.8407 37.7252C18.3026 53.035 24.6679 66.9931 35.1605 76.6371Z" fill="#FF9100"/>
<path d="M37.9015 0C31.0278 5.47267 25.6002 12.6883 22.3164 21.0007C20.3922 25.8734 19.2429 31.0139 18.9096 36.2379C30.9786 39.332 39.6987 50.4212 39.2456 63.3119C39.0735 68.2122 37.5899 72.7563 35.1549 76.6406C39.7961 80.9097 45.1983 84.2805 51.084 86.5797C63.0205 81.0964 71.4895 69.2972 71.98 55.3413C72.2976 46.2991 68.8019 38.2402 63.862 31.4379C58.6454 24.2435 37.9013 0 37.9013 0" fill="#DD2C00"/>
</g>
<defs>
<clipPath id="clip0_114_276">
<rect width="72" height="90" fill="white"/>
</clipPath>
</defs>
</svg>
