<svg width="91" height="91" viewBox="0 0 91 91" fill="none" xmlns="http://www.w3.org/2000/svg">
<path fill-rule="evenodd" clip-rule="evenodd" d="M45.5 3.62793C21.7924 3.62793 2.56791 22.8481 2.56791 46.56C2.56791 65.5293 14.8693 81.6213 31.9275 87.2989C34.0724 87.697 34.8601 86.3675 34.8601 85.2336C34.8601 84.2099 34.8203 80.8279 34.8018 77.2405C22.8581 79.8376 20.3378 72.1751 20.3378 72.1751C18.3848 67.2128 15.571 65.8933 15.571 65.8933C11.675 63.2287 15.8646 63.2841 15.8646 63.2841C20.175 63.5863 22.4457 67.7083 22.4457 67.7083C26.2748 74.2702 32.4891 72.3735 34.939 71.2772C35.3244 68.5024 36.437 66.6077 37.6648 65.5357C28.129 64.4515 18.104 60.7695 18.104 44.3191C18.104 39.6319 19.7818 35.8021 22.5282 32.7949C22.0817 31.7142 20.6122 27.3476 22.9434 21.4341C22.9434 21.4341 26.5478 20.2802 34.752 25.8348C38.1773 24.8828 41.8508 24.4044 45.5 24.388C49.1471 24.4044 52.8227 24.8814 56.2544 25.8334C64.4486 20.2788 68.0488 21.4326 68.0488 21.4326C70.3857 27.3455 68.9162 31.7128 68.4704 32.7934C71.2231 35.8007 72.8889 39.6305 72.8889 44.3177C72.8889 60.8072 62.8455 64.4373 53.2855 65.5008C54.8261 66.8331 56.1982 69.4465 56.1982 73.4512C56.1982 79.1956 56.1484 83.8188 56.1484 85.2329C56.1484 86.3754 56.9219 87.7141 59.0974 87.2925C76.1457 81.6092 88.4328 65.5221 88.4328 46.56C88.4321 22.8495 69.2098 3.62793 45.5 3.62793Z" fill="#181616"/>
<path d="M18.8285 65.2683C18.7339 65.4815 18.3984 65.5455 18.0927 65.3998C17.7798 65.2604 17.6057 64.9697 17.7066 64.7557C17.799 64.5353 18.1353 64.4748 18.446 64.622C18.7588 64.7621 18.9365 65.0557 18.8278 65.269L18.8285 65.2683ZM20.5674 67.2084C20.3634 67.3982 19.9631 67.3101 19.6916 67.0093C19.41 66.7107 19.3574 66.3105 19.5657 66.1178C19.7776 65.9287 20.1657 66.0183 20.4473 66.3169C20.7274 66.6197 20.7828 67.0164 20.5681 67.2091L20.5674 67.2084ZM22.2609 69.6803C21.9978 69.8638 21.567 69.6924 21.3011 69.3106C21.0381 68.9282 21.0381 68.4696 21.3082 68.2869C21.5734 68.1035 21.9978 68.2691 22.268 68.6473C22.5296 69.0348 22.5296 69.4941 22.2609 69.6803ZM24.5792 72.0698C24.3446 72.3293 23.8427 72.2596 23.4759 71.9063C23.1012 71.56 22.9967 71.0674 23.232 70.8086C23.4709 70.5484 23.9749 70.6209 24.3439 70.9721C24.7186 71.3176 24.8316 71.811 24.5807 72.0691L24.5792 72.0698ZM27.7785 73.4568C27.674 73.7931 27.1919 73.946 26.7049 73.8023C26.2194 73.6552 25.9016 73.262 26.0011 72.9222C26.1007 72.5831 26.5862 72.4245 27.0761 72.5774C27.5616 72.7239 27.8794 73.1149 27.7785 73.4568ZM31.2926 73.7135C31.3047 74.0675 30.8924 74.3604 30.3826 74.3675C29.8686 74.3796 29.4527 74.0924 29.4477 73.744C29.4477 73.3864 29.8516 73.0971 30.3649 73.0871C30.8746 73.0779 31.2933 73.3623 31.2933 73.7128L31.2926 73.7135ZM34.5615 73.1575C34.6227 73.5023 34.2679 73.8571 33.761 73.9516C33.2633 74.0441 32.8012 73.8294 32.7373 73.4874C32.6761 73.1333 33.0373 72.7786 33.5349 72.6869C34.0425 72.5994 34.4975 72.807 34.5615 73.1575Z" fill="#181616"/>
</svg>
