<svg width="101" height="101" viewBox="0 0 101 101" fill="none" xmlns="http://www.w3.org/2000/svg">
<path d="M18.6282 85.8532L11.5361 6.3125H89.4639L82.3623 85.8405L50.4527 94.6875L18.6282 85.8532Z" fill="#E44F26"/>
<path d="M50.5 87.9267L76.2866 80.7778L82.3529 12.8174H50.5V87.9267Z" fill="#F1662A"/>
<path d="M50.5 42.3158H37.5909L36.7009 32.3263H50.5V22.5703H26.0391L26.2726 25.19L28.6682 52.0718H50.5V42.3158ZM50.5 67.651L50.4558 67.6637L39.592 64.7315L38.8976 56.9513H29.1038L30.4704 72.2655L50.4558 77.8142L50.5 77.8015V67.651Z" fill="#EBEBEB"/>
<path d="M50.4653 42.3158V52.0718H62.478L61.348 64.7252L50.4653 67.6605V77.811L70.4664 72.2655L70.6116 70.6179L72.9031 44.9355L73.1429 42.3158H50.4653ZM50.4653 22.5703V32.3263H74.0298L74.2255 30.1358L74.6706 25.19L74.9041 22.5703H50.4653Z" fill="white"/>
</svg>
