<svg width="98" height="96" viewBox="0 0 98 96" fill="none" xmlns="http://www.w3.org/2000/svg">
<g clip-path="url(#clip0_114_290)">
<path d="M81.7305 0H16.2695C7.28412 0 0 7.30671 0 16.32V79.5264C0 88.5397 7.28412 95.8464 16.2695 95.8464H81.7305C90.7159 95.8464 98 88.5397 98 79.5264V16.32C98 7.30671 90.7159 0 81.7305 0Z" fill="#330000"/>
<path d="M47.4895 57.5195H32.3033L29.2132 67.1476C29.1712 67.3232 29.0694 67.4786 28.9253 67.587C28.7813 67.6953 28.6041 67.7499 28.4242 67.7412H20.7324C20.2939 67.7412 20.1406 67.4993 20.2722 67.0155L33.4207 29.031C33.5521 28.6354 33.6836 28.1849 33.815 27.6793C33.9873 26.7992 34.0753 25.9052 34.078 25.0086C34.069 24.9458 34.0748 24.8819 34.0947 24.8218C34.1147 24.7617 34.1483 24.707 34.193 24.6622C34.2376 24.6174 34.292 24.5836 34.3519 24.5635C34.4119 24.5435 34.4756 24.5377 34.5381 24.5466H44.9912C45.2975 24.5466 45.4728 24.6567 45.5172 24.8768L60.4404 67.0815C60.5718 67.5218 60.4404 67.7417 60.0461 67.7412H51.4994C51.3527 67.7573 51.2051 67.7194 51.0842 67.6345C50.9633 67.5495 50.8773 67.4235 50.8421 67.2797L47.4895 57.5195ZM34.6698 49.2105H45.0571L44.9089 48.7202L44.6712 47.9437L44.5016 47.3984L44.231 46.5398L43.6556 44.7323L43.1495 43.1299L41.8353 38.9558C41.5082 37.9182 41.1943 36.8765 40.8936 35.8308L40.6532 34.9822L40.3722 33.9788L39.9435 32.4236L39.8631 32.1306H39.7976C39.4686 33.7135 39.068 35.2805 38.5971 36.8269L37.6217 39.9742L37.085 41.7129L36.5433 43.4732C36.4456 43.7912 36.3479 44.1055 36.2505 44.4163L35.9595 45.3371L35.6701 46.2365L35.3822 47.1135L35.0959 47.9687C35.001 48.2503 34.9061 48.528 34.8115 48.802L34.6698 49.2105ZM69.3147 31.5369C68.6442 31.5639 67.9756 31.4485 67.3526 31.1986C66.7296 30.9486 66.1661 30.5695 65.6991 30.0862C65.2336 29.5816 64.872 28.9898 64.6351 28.3448C64.3981 27.6997 64.2905 27.0141 64.3183 26.3272C64.2944 25.6472 64.4139 24.9698 64.6687 24.3392C64.9236 23.7086 65.3082 23.139 65.7975 22.6677C66.7411 21.759 67.9978 21.2505 69.3059 21.248L69.446 21.2496C71.024 21.2496 72.2623 21.7222 73.1609 22.6673C73.6143 23.1585 73.9667 23.7347 74.1979 24.3627C74.4291 24.9907 74.5346 25.6583 74.5084 26.3272C74.5362 27.0169 74.4254 27.7051 74.1826 28.351C73.9398 28.9968 73.5699 29.5871 73.095 30.0866C72.6157 30.5604 72.0468 30.9332 71.4217 31.1832C70.7966 31.4331 70.128 31.5551 69.4552 31.5419L69.3147 31.5369ZM64.7784 67.0815V35.5597C64.7782 35.1639 64.9535 34.9661 65.3044 34.9661H73.3909C73.7413 34.9661 73.9167 35.1639 73.9169 35.5597V67.0815C73.9169 67.5218 73.7416 67.7417 73.3909 67.7412H65.3702C64.9966 67.7412 64.8 67.5439 64.7803 67.1491L64.7784 67.0815Z" fill="#FF9A00"/>
</g>
<defs>
<clipPath id="clip0_114_290">
<rect width="98" height="96" fill="white"/>
</clipPath>
</defs>
</svg>
