<svg width="91" height="91" viewBox="0 0 91 91" fill="none" xmlns="http://www.w3.org/2000/svg">
<g clip-path="url(#clip0_113_255)">
<path d="M69.6719 0H21.3281C9.54893 0 0 9.54893 0 21.3281V69.6719C0 81.4511 9.54893 91 21.3281 91H69.6719C81.4511 91 91 81.4511 91 69.6719V21.3281C91 9.54893 81.4511 0 69.6719 0Z" fill="#F0DB4F"/>
<path d="M23.9273 76.046L30.8909 71.8315C32.2346 74.2135 33.4567 76.229 36.3883 76.229C39.1982 76.229 40.9699 75.1299 40.9699 70.8543V41.7777H49.5218V70.9752C49.5218 79.8324 44.3298 83.8641 36.7547 83.8641C29.9137 83.8641 25.9428 80.3212 23.9269 76.0452M54.1667 75.1296L61.1296 71.0982C62.9627 74.0916 65.3451 76.2905 69.5595 76.2905C73.1032 76.2905 75.3626 74.5189 75.3626 72.0754C75.3626 69.1435 73.0413 68.1048 69.1319 66.395L66.9945 65.4782C60.8246 62.852 56.7317 59.5533 56.7317 52.5896C56.7317 46.1756 61.6187 41.2886 69.2545 41.2886C74.6911 41.2886 78.6005 43.1825 81.4101 48.1303L74.7519 52.4062C73.2856 49.7797 71.698 48.7413 69.2545 48.7413C66.7499 48.7413 65.1617 50.3296 65.1617 52.4062C65.1617 54.9716 66.7499 56.0103 70.4148 57.5989L72.5526 58.5149C79.8216 61.6306 83.9144 64.8064 83.9144 71.9531C83.9144 79.6504 77.8672 83.8648 69.743 83.8648C61.8021 83.8648 56.6709 80.0777 54.1667 75.1296Z" fill="#323330"/>
</g>
<defs>
<clipPath id="clip0_113_255">
<rect width="91" height="91" fill="white"/>
</clipPath>
</defs>
</svg>
