<svg width="58" height="58" viewBox="0 0 58 58" fill="none" xmlns="http://www.w3.org/2000/svg">
<path d="M50.8667 0C52.553 0 54.1703 0.669894 55.3627 1.86231C56.5551 3.05473 57.225 4.672 57.225 6.35833V50.8667C57.225 52.553 56.5551 54.1703 55.3627 55.3627C54.1703 56.5551 52.553 57.225 50.8667 57.225H6.35833C4.672 57.225 3.05473 56.5551 1.86231 55.3627C0.669894 54.1703 0 52.553 0 50.8667V6.35833C0 4.672 0.669894 3.05473 1.86231 1.86231C3.05473 0.669894 4.672 0 6.35833 0H50.8667ZM49.2771 49.2771V32.4275C49.2771 29.6788 48.1852 27.0426 46.2415 25.099C44.2979 23.1553 41.6617 22.0634 38.913 22.0634C36.2107 22.0634 33.0633 23.7166 31.5373 26.1963V22.6675H22.6675V49.2771H31.5373V33.6038C31.5373 31.1558 33.5084 29.153 35.9564 29.153C37.1368 29.153 38.2689 29.6219 39.1036 30.4566C39.9383 31.2913 40.4072 32.4234 40.4072 33.6038V49.2771H49.2771ZM12.3352 17.6762C13.7517 17.6762 15.1102 17.1135 16.1118 16.1118C17.1135 15.1102 17.6762 13.7517 17.6762 12.3352C17.6762 9.37854 15.2918 6.96238 12.3352 6.96238C10.9102 6.96238 9.54362 7.52844 8.53603 8.53603C7.52844 9.54362 6.96238 10.9102 6.96238 12.3352C6.96238 15.2918 9.37854 17.6762 12.3352 17.6762ZM16.7542 49.2771V22.6675H7.94792V49.2771H16.7542Z" fill="white"/>
</svg>
