<svg width="62" height="62" viewBox="0 0 62 62" fill="none" xmlns="http://www.w3.org/2000/svg">
<path d="M10.2746 51.3737C8.86187 51.3737 7.65289 50.8711 6.64769 49.866C5.6425 48.8608 5.13904 47.6509 5.13733 46.2365V15.4127C5.13733 13.9999 5.64078 12.791 6.64769 11.7858C7.6546 10.7806 8.86358 10.2771 10.2746 10.2754H51.373C52.7857 10.2754 53.9956 10.7788 55.0025 11.7858C56.0094 12.7927 56.512 14.0016 56.5103 15.4127V46.2365C56.5103 47.6492 56.0077 48.859 55.0025 49.866C53.9973 50.8729 52.7874 51.3755 51.373 51.3737H10.2746ZM30.8238 33.3932L51.373 20.55V15.4127L30.8238 28.2559L10.2746 15.4127V20.55L30.8238 33.3932Z" fill="white"/>
</svg>
