<svg width="96" height="94" viewBox="0 0 96 94" fill="none" xmlns="http://www.w3.org/2000/svg">
<g clip-path="url(#clip0_114_287)">
<path d="M80.0625 0H15.9375C7.13546 0 0 7.15449 0 15.98V77.8696C0 86.6951 7.13546 93.8496 15.9375 93.8496H80.0625C88.8645 93.8496 96 86.6951 96 77.8696V15.98C96 7.15449 88.8645 0 80.0625 0Z" fill="#001E36"/>
<path d="M21.6165 65.8133V24.5518C21.6165 24.2508 21.7454 24.1001 22.0031 24.0999L22.4108 24.0988L23.1075 24.0912L24.0758 24.0721L27.3195 24.0033L30.7976 23.9386C32.0209 23.9173 33.2336 23.9065 34.4359 23.9062C37.6984 23.9062 40.4461 24.3152 42.6791 25.1331C44.6937 25.8159 46.5309 26.9409 48.0566 28.4261C49.3503 29.7133 50.35 31.2666 50.9869 32.9788C51.5891 34.645 51.8944 36.4044 51.8888 38.1766C51.8888 41.621 51.0944 44.4622 49.5056 46.7001C47.952 48.8835 45.7848 50.5532 43.2806 51.4964L43.0658 51.5753C40.4509 52.5533 37.5551 52.9068 34.3793 52.9289L33.8858 52.9304L33.1534 52.9267L32.784 52.9214L32.3723 52.9116L32.124 52.9019L31.9733 52.894L31.6024 52.8804L31.149 52.871L30.4665 52.8661L30.3146 52.8658V65.7487C30.3259 65.8276 30.3187 65.9081 30.2936 65.9838C30.2684 66.0595 30.2261 66.1283 30.1698 66.1847C30.1135 66.2411 30.0449 66.2836 29.9694 66.3088C29.894 66.334 29.8137 66.3413 29.7349 66.33H22.0676C21.7666 66.3302 21.6163 66.158 21.6165 65.8133ZM30.315 31.8485V45.3063C30.8725 45.3497 31.3875 45.3712 31.86 45.371H33.9855C35.4509 45.3659 36.9078 45.1472 38.3104 44.7216L38.5901 44.634C39.8663 44.2543 41.0065 43.5145 41.8748 42.5028C42.6818 41.5485 43.0998 40.2335 43.1288 38.5578L43.1306 38.3702C43.1644 37.1211 42.8404 35.8886 42.1965 34.8189C41.5201 33.7841 40.5419 32.9836 39.3953 32.5264C37.8983 31.9428 36.2992 31.6683 34.6939 31.7195L33.8771 31.7218L33.3619 31.7263L32.8703 31.7327L32.1765 31.7462L31.6703 31.7605L31.4074 31.7703L31.056 31.7868L30.7568 31.8053L30.5861 31.8188L30.4388 31.8331L30.3739 31.8406L30.315 31.8485ZM76.7888 42.8593C75.6653 42.2806 74.4737 41.8458 73.242 41.5651L72.957 41.5034C71.602 41.1917 70.2186 41.02 68.8286 40.9909L68.4814 40.9868C67.6665 40.9646 66.8529 41.0625 66.0664 41.2775C65.5659 41.3895 65.1209 41.6753 64.8101 42.0843C64.6001 42.4118 64.4884 42.7929 64.4884 43.1823C64.5002 43.5598 64.6359 43.9229 64.8746 44.2151C65.2165 44.6159 65.6274 44.9517 66.0878 45.2067L66.2273 45.2807C67.1455 45.7764 68.0916 46.2183 69.0608 46.6042C71.2219 47.3301 73.2871 48.3167 75.2108 49.5423C76.5213 50.3716 77.6058 51.5144 78.3668 52.868C79.0062 54.1496 79.3266 55.5675 79.3005 57.0003C79.3387 58.8926 78.7994 60.7514 77.7548 62.3278C76.6363 63.9278 75.0826 65.1717 73.2788 65.9111C71.3898 66.7433 69.0701 67.1735 66.3199 67.2015L66.0341 67.203C64.3292 67.22 62.6267 67.0704 60.9506 66.7563L60.5921 66.6864C59.181 66.4269 57.8074 65.9931 56.5028 65.3948C56.3716 65.3271 56.2607 65.2256 56.1815 65.1007C56.1022 64.9758 56.0576 64.8321 56.052 64.6842V57.6462C56.0443 57.5779 56.0552 57.5088 56.0836 57.4462C56.112 57.3836 56.1568 57.33 56.2133 57.2909C56.2685 57.2594 56.332 57.2456 56.3953 57.2514C56.4586 57.2572 56.5186 57.2823 56.5673 57.3232C58.108 58.2341 59.781 58.8986 61.5259 59.2927C63.064 59.6795 64.6417 59.8854 66.2273 59.9064C67.7295 59.9064 68.835 59.7126 69.5438 59.3251C69.8637 59.178 70.1342 58.9412 70.3228 58.6433C70.5114 58.3454 70.6099 57.9991 70.6065 57.6462C70.6065 57.0872 70.2845 56.5492 69.6405 56.0321C69.3705 55.8155 68.9834 55.5799 68.4791 55.3252L68.238 55.2064L67.9808 55.0849L67.8458 55.0233L67.563 54.8977L67.4156 54.8338L67.1081 54.7044L66.948 54.6386L66.6158 54.5051L66.4433 54.4375L66.0859 54.2995L65.712 54.1592C63.6896 53.4541 61.7722 52.4766 60.0124 51.2535C58.7535 50.3758 57.717 49.2148 56.9858 47.8635C56.3527 46.591 56.0325 45.1851 56.052 43.7632C56.048 42.0547 56.5161 40.3784 57.4043 38.9203C58.4168 37.3148 59.8703 36.0364 61.5904 35.24C63.4791 34.2935 65.8404 33.8199 68.6741 33.8191C70.3339 33.8057 71.9921 33.9246 73.6331 34.1744C74.8214 34.3257 75.9831 34.6408 77.0854 35.1107C77.2628 35.1618 77.4056 35.293 77.4716 35.466C77.5155 35.6235 77.5369 35.7863 77.5361 35.9503V42.472C77.5455 42.6262 77.4716 42.7739 77.343 42.8593C77.2569 42.9022 77.1621 42.9245 77.0659 42.9245C76.9697 42.9245 76.8749 42.9022 76.7888 42.8593Z" fill="#31A8FF"/>
</g>
<defs>
<clipPath id="clip0_114_287">
<rect width="96" height="94" fill="white"/>
</clipPath>
</defs>
</svg>
