<svg width="83" height="83" viewBox="0 0 83 83" fill="none" xmlns="http://www.w3.org/2000/svg">
<g clip-path="url(#clip0_113_259)">
<path d="M63.5469 0H19.4531C8.70946 0 0 8.70946 0 19.4531V63.5469C0 74.2905 8.70946 83 19.4531 83H63.5469C74.2905 83 83 74.2905 83 63.5469V19.4531C83 8.70946 74.2905 0 63.5469 0Z" fill="#242938"/>
<path d="M41.5003 47.6441C44.8411 47.6441 47.5489 44.9359 47.5489 41.5955C47.5489 38.2551 44.8411 35.5469 41.5003 35.5469C38.1596 35.5469 35.4517 38.2551 35.4517 41.5955C35.4517 44.9359 38.1599 47.6441 41.5003 47.6441Z" fill="#00D8FF"/>
<path d="M41.5006 29.2974C49.6217 29.2974 57.1659 30.4626 62.8543 32.4212C69.708 34.7806 73.9219 38.357 73.9219 41.5956C73.9219 44.9704 69.4561 48.7699 62.096 51.2084C56.5318 53.0519 49.2096 54.0142 41.5006 54.0142C33.5968 54.0142 26.1123 53.1109 20.4851 51.188C13.3659 48.7547 9.07812 44.9062 9.07812 41.5956C9.07812 38.3833 13.1017 34.8344 19.859 32.4786C25.5685 30.4879 33.2989 29.2974 41.4994 29.2974H41.5006Z" stroke="#00D8FF" stroke-width="0.556938"/>
<path d="M30.7946 35.4818C34.8519 28.4469 39.6299 22.4936 44.1683 18.5447C49.6359 13.7861 54.8397 11.9225 57.6448 13.54C60.5683 15.226 61.6288 20.9932 60.0644 28.587C58.8827 34.328 56.0574 41.1515 52.206 47.8297C48.2574 54.6766 43.7361 60.709 39.2596 64.6217C33.5952 69.5731 28.1188 71.3651 25.2511 69.7112C22.4684 68.1077 21.4043 62.8485 22.7394 55.8178C23.8674 49.8772 26.6981 42.5858 30.7933 35.4818H30.7946Z" stroke="#00D8FF" stroke-width="0.556938"/>
<path d="M30.8047 47.8473C26.736 40.8202 23.9659 33.7062 22.8098 27.8022C21.4179 20.6885 22.4019 15.2497 25.2048 13.6273C28.1256 11.9362 33.6513 13.8977 39.449 19.0457C43.8324 22.9376 48.3336 28.792 52.196 35.4638C56.156 42.3041 59.1239 49.2343 60.2784 55.0664C61.7394 62.4469 60.5569 68.086 57.6918 69.7444C54.9119 71.3538 49.8246 69.65 44.4001 64.9819C39.817 61.0382 34.9135 54.9445 30.8047 47.8473Z" stroke="#00D8FF" stroke-width="0.556938"/>
</g>
<defs>
<clipPath id="clip0_113_259">
<rect width="83" height="83" fill="white"/>
</clipPath>
</defs>
</svg>
