<svg width="79" height="79" viewBox="0 0 79 79" fill="none" xmlns="http://www.w3.org/2000/svg">
<g clip-path="url(#clip0_114_266)">
<path d="M60.4844 0H18.5156C8.28973 0 0 8.28973 0 18.5156V60.4844C0 70.7103 8.28973 79 18.5156 79H60.4844C70.7103 79 79 70.7103 79 60.4844V18.5156C79 8.28973 70.7103 0 60.4844 0Z" fill="#242938"/>
<path fill-rule="evenodd" clip-rule="evenodd" d="M25.6133 33.9453C27.4648 26.5391 32.0938 22.8359 39.5 22.8359C50.6094 22.8359 51.998 31.168 57.5527 32.5566C61.2559 33.4828 64.4961 32.0942 67.2734 28.3906C65.4219 35.7969 60.793 39.5 53.3867 39.5C42.2773 39.5 40.8887 31.168 35.334 29.7793C31.6309 28.8535 28.3906 30.2422 25.6133 33.9453ZM11.7266 50.6094C13.5781 43.2031 18.207 39.5 25.6133 39.5C36.7227 39.5 38.1113 47.832 43.666 49.2207C47.3691 50.1469 50.6094 48.7582 53.3867 45.0547C51.5352 52.4609 46.9062 56.1641 39.5 56.1641C28.3906 56.1641 27.002 47.832 21.4473 46.4434C17.7441 45.5172 14.5039 46.9058 11.7266 50.6094Z" fill="url(#paint0_linear_114_266)"/>
</g>
<defs>
<linearGradient id="paint0_linear_114_266" x1="26.6934" y1="22.8359" x2="50.4551" y2="57.2441" gradientUnits="userSpaceOnUse">
<stop stop-color="#32B1C1"/>
<stop offset="1" stop-color="#14C6B7"/>
</linearGradient>
<clipPath id="clip0_114_266">
<rect width="79" height="79" fill="white"/>
</clipPath>
</defs>
</svg>
