<svg width="2338" height="1082" viewBox="0 0 2338 1082" fill="none" xmlns="http://www.w3.org/2000/svg">
<path d="M2338 1081C2338 1081.55 2337.55 1082 2337 1082H1C0.447723 1082 2.10776e-08 1081.55 0 1081V129C0 117.954 8.9543 109 20 109H1578.31C1586.06 109 1593.11 104.529 1596.41 97.523L1636.94 11.4771C1640.24 4.47102 1647.29 0 1655.03 0H1879.15C1886.84 0 1893.85 4.41457 1897.18 11.3531L1938.56 97.6469C1941.88 104.585 1948.9 109 1956.59 109H2318C2329.05 109 2338 117.954 2338 129V1081Z" fill="url(#paint0_linear_277_90)"/>
<defs>
<linearGradient id="paint0_linear_277_90" x1="720" y1="0" x2="720" y2="862" gradientUnits="userSpaceOnUse">
<stop stop-color="#05565F"/>
<stop offset="0.26728" stop-color="#76A9AF"/>
</linearGradient>
</defs>
</svg>
