<svg width="2338" height="661" viewBox="0 0 2338 661" fill="none" xmlns="http://www.w3.org/2000/svg">
<path d="M1160.95 102.804C1157.82 110.198 1150.57 115 1142.54 115H20C8.95429 115 0 123.954 0 135V659C0 660.105 0.895431 661 2 661H2337C2337.55 661 2338 660.552 2338 660V135C2338 123.954 2329.05 115 2318 115H1530.67C1522.6 115 1515.32 110.143 1512.21 102.688L1474.58 12.3122C1471.48 4.85685 1464.19 0 1456.12 0H1217.77C1209.74 0 1202.48 4.80246 1199.35 12.1957L1160.95 102.804Z" fill="#653A5D"/>
</svg>
