<svg width="2338" height="1069" viewBox="0 0 2338 1069" fill="none" xmlns="http://www.w3.org/2000/svg">
<path d="M2338 1068C2338 1068.55 2337.55 1069 2337 1069H1C0.447723 1069 2.81871e-08 1068.55 0 1068V129C0 117.954 8.95431 109 20 109H1311.79C1319.29 109 1326.15 104.808 1329.58 98.1396L1374.42 10.8604C1377.85 4.19234 1384.71 0 1392.21 0H1639.89C1647.33 0 1654.16 4.13496 1657.61 10.732L1703.39 98.268C1706.84 104.865 1713.67 109 1721.11 109H2318C2329.05 109 2338 117.954 2338 129V1068Z" fill="#760202"/>
</svg>
